<?xml version="1.0" standalone="no"?><!DOCTYPE svg PUBLIC "-//W3C//DTD SVG 1.1//EN" "http://www.w3.org/Graphics/SVG/1.1/DTD/svg11.dtd"><svg t="1625107172994" class="icon" viewBox="0 0 1024 1024" version="1.1" xmlns="http://www.w3.org/2000/svg" p-id="1186" xmlns:xlink="http://www.w3.org/1999/xlink" width="200" height="200"><defs><style type="text/css"></style></defs><path d="M884.363636 320.349091a29.090909 29.090909 0 0 1-3.723636-58.181818l69.818182-9.192728a29.090909 29.090909 0 1 1 7.563636 58.181819l-69.818182 9.192727zM853.992727 174.545455a29.090909 29.090909 0 0 1-20.596363-49.687273L889.134545 69.818182a29.090909 29.090909 0 0 1 41.192728 41.192727l-55.738182 55.738182a28.974545 28.974545 0 0 1-20.596364 7.796364zM708.770909 144.407273h-3.84a29.090909 29.090909 0 0 1-25.018182-32.698182l9.192728-69.818182a29.090909 29.090909 0 0 1 58.181818 7.563636l-9.192728 69.818182a29.090909 29.090909 0 0 1-29.323636 25.134546z" fill="" p-id="1187"></path><path d="M731.112727 995.723636H246.341818a122.298182 122.298182 0 0 1-122.181818-122.181818V270.894545a122.298182 122.298182 0 0 1 122.181818-122.181818h333.963637l272.98909 227.490909v497.338182a122.298182 122.298182 0 0 1-122.181818 122.181818zM246.341818 206.894545a64.116364 64.116364 0 0 0-64 64v602.763637a64.116364 64.116364 0 0 0 64 64h484.770909a64.116364 64.116364 0 0 0 64-64V403.432727L559.243636 206.894545z" fill="" p-id="1188"></path><path d="M797.090909 442.181818h-139.636364A122.298182 122.298182 0 0 1 535.272727 320v-116.363636a29.090909 29.090909 0 0 1 58.181818 0v116.363636a64.116364 64.116364 0 0 0 64 64h139.636364a29.090909 29.090909 0 0 1 0 58.181818z" fill="" p-id="1189"></path></svg>